# Blender 4.0.2
# www.blender.org
mtllib lowpoly-house.mtl
o Cube
v -1.000000 0.003767 1.316114
v -1.000000 1.698017 1.316114
v -1.000000 0.003767 -1.326478
v -1.000000 1.698017 -1.326478
v 1.000000 0.003767 1.316114
v 1.000000 1.698017 1.316114
v 1.000000 0.003767 -1.326478
v 1.000000 1.698017 -1.326478
v 0.000000 0.003767 -1.326478
v 0.000000 3.009113 -1.326478
v 0.000000 0.003767 1.316114
v 0.000000 3.009113 1.316114
vn -1.0000 -0.0000 -0.0000
vn -0.0000 -0.0000 -1.0000
vn 1.0000 -0.0000 -0.0000
vn -0.0000 -0.0000 1.0000
vn -0.0000 -1.0000 -0.0000
vn -0.7951 0.6065 -0.0000
vn 0.7951 0.6065 -0.0000
vt 0.023366 0.652658
vt 0.219114 0.347341
vt 0.219114 0.652658
vt 0.334651 0.347341
vt 0.450188 0.151593
vt 0.450188 0.347341
vt 0.645937 0.347341
vt 0.450188 0.652658
vt 0.334651 0.652658
vt 0.219114 0.848407
vt 0.984034 0.982614
vt 0.678717 0.792102
vt 0.984034 0.792101
vt 0.678717 0.601589
vt 0.984034 0.601589
vt 0.450188 0.848407
vt 0.219115 0.151593
vt 0.023366 0.347341
vt 0.334651 0.000113
vt 0.645937 0.652658
vt 0.334651 0.999887
vt 0.678717 0.982614
s 0
g Cube_Material
usemtl Material
f 2/1/1 3/2/1 1/3/1
f 9/4/2 8/5/2 7/6/2
f 8/7/3 5/8/3 7/6/3
f 11/9/4 2/10/4 1/3/4
f 7/6/5 11/9/5 9/4/5
f 4/11/6 12/12/6 10/13/6
f 10/13/7 6/14/7 8/15/7
f 9/4/5 1/3/5 3/2/5
f 6/16/4 11/9/4 5/8/4
f 4/17/2 9/4/2 3/2/2
f 2/1/1 4/18/1 3/2/1
f 9/4/2 10/19/2 8/5/2
f 8/7/3 6/20/3 5/8/3
f 11/9/4 12/21/4 2/10/4
f 7/6/5 5/8/5 11/9/5
f 4/11/6 2/22/6 12/12/6
f 10/13/7 12/12/7 6/14/7
f 9/4/5 11/9/5 1/3/5
f 6/16/4 12/21/4 11/9/4
f 4/17/2 10/19/2 9/4/2
